<?xml version="1.0" encoding="iso-8859-1"?>
<!-- Generator: Adobe Illustrator 18.0.0, SVG Export Plug-In . SVG Version: 6.00 Build 0)  -->
<!DOCTYPE svg PUBLIC "-//W3C//DTD SVG 1.1//EN" "http://www.w3.org/Graphics/SVG/1.1/DTD/svg11.dtd">
<svg version="1.1" id="Capa_1" xmlns="http://www.w3.org/2000/svg" xmlns:xlink="http://www.w3.org/1999/xlink" x="0px" y="0px"
	 viewBox="0 0 25.822 43.158" style="enable-background:new 0 0 25.822 43.158;" xml:space="preserve">
<g id="facebook">
	<g>
		<path style="fill-rule:evenodd;clip-rule:evenodd;" d="M24.822,0.007l-6.56,0.003c0,0-0.133-0.01-0.372-0.01
			C16.544,0,9.737,0.374,7.885,7.673c-0.029,0.081-0.652,1.908-0.662,6.157H1c-0.552,0-1,0.448-1,1v5.734c0,0.552,0.448,1,1,1h6.806
			v20.594c0,0.552,0.448,1,1,1h7.793c0.552,0,1-0.448,1-1V21.585h6.828c0.552,0,1-0.448,1-1v-5.755c0-0.552-0.448-1-1-1h-6.814
			v-2.461c0-1.639,1.04-3.39,3.96-3.39h3.249c0.552,0,1-0.448,1-1V1.007C25.822,0.455,25.375,0.007,24.822,0.007z M23.822,5.979
			h-2.249c-4.117,0-5.96,2.707-5.96,5.39v3.461c0,0.552,0.448,1,1,1h6.814v3.755h-6.828c-0.552,0-1,0.448-1,1v20.573H9.806V20.564
			c0-0.552-0.448-1-1-1H2v-3.734h6.231c0.269,0,0.526-0.108,0.714-0.3c0.188-0.192,0.291-0.451,0.286-0.72
			c-0.089-4.548,0.536-6.463,0.566-6.56C11.272,2.451,16.365,2,17.89,2c0.139,0,0.222,0.004,0.303,0.007h5.629V5.979z"/>
	</g>
</g>
<g>
</g>
<g>
</g>
<g>
</g>
<g>
</g>
<g>
</g>
<g>
</g>
<g>
</g>
<g>
</g>
<g>
</g>
<g>
</g>
<g>
</g>
<g>
</g>
<g>
</g>
<g>
</g>
<g>
</g>
</svg>
